<svg width="29" height="36" viewBox="0 0 29 36" fill="none" xmlns="http://www.w3.org/2000/svg">
<path d="M19.9611 1.00461C19.4845 1.28316 18.5245 2.0631 17.8199 2.74554C16.6734 3.85974 15.7064 5.16892 14.9466 6.64523C14.7256 7.06305 14.5391 7.4182 14.5322 7.43213C14.5183 7.44606 14.3664 7.18143 14.1937 6.84021C13.1369 4.79288 11.12 3.08677 8.86833 2.33468C8.13617 2.09095 7.36949 1.95168 6.513 1.89597C5.87064 1.86115 5.79467 1.86811 5.5391 2.01435C5.37333 2.10488 5.19375 2.28594 5.10396 2.45307C4.95891 2.71072 4.952 2.78733 4.99344 3.42102C5.0487 4.26363 5.18684 4.9809 5.44931 5.78869C5.67724 6.46417 6.10549 7.37642 6.20909 7.37642C6.24363 7.37642 6.47847 7.32071 6.74094 7.25803C7.06557 7.17447 7.51453 7.13965 8.21215 7.13965C9.80079 7.13269 10.6711 7.37642 12.8054 8.40705C14.4009 9.17306 14.4078 9.17306 15.6097 8.58811L16.48 8.16332L16.8391 7.48087C17.7923 5.68423 19.0908 4.18703 20.7071 3.02409C21.3218 2.57841 21.5429 2.27201 21.5429 1.86115C21.5429 1.33887 21.0317 0.83052 20.5068 0.83052C20.3756 0.83052 20.1269 0.907121 19.9611 1.00461Z" fill="black"/>
<path d="M7.51973 9.06855C6.55614 9.22216 5.23465 9.76981 4.2573 10.4176C3.54149 10.8985 2.51596 11.9137 1.99975 12.6617C-0.774003 16.6689 -0.650114 23.174 2.29571 28.8108C3.1767 30.4872 4.13341 31.7829 5.33101 32.9116C6.83145 34.3141 8.33878 35.0488 9.93558 35.1556C11.0506 35.2224 11.8834 35.0154 13.3081 34.3074C14.4369 33.7464 14.5677 33.7531 15.8548 34.3675C17.3139 35.0621 17.9884 35.2224 19.0897 35.1556C20.6658 35.0554 22.18 34.3208 23.6461 32.945C26.3166 30.4538 28.2093 26.5468 28.8701 22.1855C29.0421 21.0769 29.0421 18.6859 28.877 17.5906C28.4709 14.9258 27.5073 12.9088 25.9036 11.366C24.1485 9.67631 21.8221 8.78136 19.8812 9.05519C19.014 9.18208 18.5184 9.34905 17.0592 10.0303C14.7398 11.1122 14.3612 11.1189 12.1656 10.0971C11.5049 9.78317 10.7271 9.45591 10.4449 9.36241C9.46067 9.03515 8.38696 8.92829 7.51973 9.06855Z" fill="black"/>
</svg>
